<mxfile host="app.diagrams.net" modified="2023-08-25T14:14:29.370Z" agent="Mozilla/5.0 (Windows NT 10.0; Win64; x64) AppleWebKit/537.36 (KHTML, like Gecko) Chrome/116.0.0.0 Safari/537.36" etag="fUEnL7Up9y8jTiGKfE4U" version="21.6.9" type="github">
  <diagram name="Page-1" id="dtMkvV5HG_kAokSsGvkS">
    <mxGraphModel dx="9886" dy="3443" grid="1" gridSize="10" guides="1" tooltips="1" connect="1" arrows="1" fold="1" page="1" pageScale="1" pageWidth="827" pageHeight="1169" math="0" shadow="0">
      <root>
        <mxCell id="0" />
        <mxCell id="1" parent="0" />
        <mxCell id="PqpOmXqPzJoeUcGZdCaw-75" value="" style="rounded=0;whiteSpace=wrap;html=1;strokeWidth=3;" vertex="1" parent="1">
          <mxGeometry x="1890" y="-1072.5" width="3330" height="3337" as="geometry" />
        </mxCell>
        <mxCell id="SN-OoBPxkU3_RAz1DeaD-6" style="edgeStyle=orthogonalEdgeStyle;rounded=0;orthogonalLoop=1;jettySize=auto;html=1;entryX=0.5;entryY=0;entryDx=0;entryDy=0;" parent="1" source="SN-OoBPxkU3_RAz1DeaD-1" target="SN-OoBPxkU3_RAz1DeaD-2" edge="1">
          <mxGeometry relative="1" as="geometry" />
        </mxCell>
        <mxCell id="SN-OoBPxkU3_RAz1DeaD-1" value="" style="ellipse;fillColor=strokeColor;html=1;strokeColor=#948b98;" parent="1" vertex="1">
          <mxGeometry x="-4423" y="-83" width="50" height="50" as="geometry" />
        </mxCell>
        <mxCell id="SN-OoBPxkU3_RAz1DeaD-7" style="edgeStyle=orthogonalEdgeStyle;rounded=0;orthogonalLoop=1;jettySize=auto;html=1;exitX=0.5;exitY=1;exitDx=0;exitDy=0;entryX=0.5;entryY=0;entryDx=0;entryDy=0;" parent="1" source="SN-OoBPxkU3_RAz1DeaD-2" target="SN-OoBPxkU3_RAz1DeaD-3" edge="1">
          <mxGeometry relative="1" as="geometry" />
        </mxCell>
        <mxCell id="SN-OoBPxkU3_RAz1DeaD-2" value="&lt;font style=&quot;font-size: 17px;&quot;&gt;Authentification&lt;/font&gt;" style="html=1;align=center;verticalAlign=top;rounded=1;absoluteArcSize=1;arcSize=20;dashed=0;whiteSpace=wrap;flipV=0;flipH=1;spacingTop=5;fontSize=17;fontStyle=0;fillColor=#E6E6E6;strokeColor=none;" parent="1" vertex="1">
          <mxGeometry x="-4468" y="17" width="140" height="40" as="geometry" />
        </mxCell>
        <mxCell id="SN-OoBPxkU3_RAz1DeaD-5" style="edgeStyle=orthogonalEdgeStyle;rounded=0;orthogonalLoop=1;jettySize=auto;html=1;exitX=1;exitY=0.5;exitDx=0;exitDy=0;entryX=0.5;entryY=0;entryDx=0;entryDy=0;" parent="1" source="SN-OoBPxkU3_RAz1DeaD-3" target="SN-OoBPxkU3_RAz1DeaD-4" edge="1">
          <mxGeometry relative="1" as="geometry">
            <Array as="points">
              <mxPoint x="-3919" y="127" />
            </Array>
          </mxGeometry>
        </mxCell>
        <mxCell id="SN-OoBPxkU3_RAz1DeaD-85" value="OUI" style="edgeLabel;html=1;align=center;verticalAlign=middle;resizable=0;points=[];" parent="SN-OoBPxkU3_RAz1DeaD-5" vertex="1" connectable="0">
          <mxGeometry x="-0.7743" relative="1" as="geometry">
            <mxPoint as="offset" />
          </mxGeometry>
        </mxCell>
        <mxCell id="SN-OoBPxkU3_RAz1DeaD-9" style="edgeStyle=orthogonalEdgeStyle;rounded=0;orthogonalLoop=1;jettySize=auto;html=1;exitX=0;exitY=0.5;exitDx=0;exitDy=0;entryX=0.5;entryY=0;entryDx=0;entryDy=0;" parent="1" source="SN-OoBPxkU3_RAz1DeaD-3" target="SN-OoBPxkU3_RAz1DeaD-8" edge="1">
          <mxGeometry relative="1" as="geometry" />
        </mxCell>
        <mxCell id="SN-OoBPxkU3_RAz1DeaD-86" value="NON" style="edgeLabel;html=1;align=center;verticalAlign=middle;resizable=0;points=[];" parent="SN-OoBPxkU3_RAz1DeaD-9" vertex="1" connectable="0">
          <mxGeometry x="-0.3452" relative="1" as="geometry">
            <mxPoint as="offset" />
          </mxGeometry>
        </mxCell>
        <mxCell id="SN-OoBPxkU3_RAz1DeaD-3" value="" style="rhombus;fillColor=#948b98;strokeColor=none;" parent="1" vertex="1">
          <mxGeometry x="-4418" y="107" width="40" height="40" as="geometry" />
        </mxCell>
        <mxCell id="SN-OoBPxkU3_RAz1DeaD-4" value="&lt;font style=&quot;font-size: 17px;&quot;&gt;Afficher les satus des commande&lt;/font&gt;" style="html=1;align=center;verticalAlign=top;rounded=1;absoluteArcSize=1;arcSize=20;dashed=0;whiteSpace=wrap;flipV=0;flipH=1;spacingTop=5;fontSize=17;fontStyle=0;fillColor=#E6E6E6;strokeColor=none;" parent="1" vertex="1">
          <mxGeometry x="-3999" y="377" width="160" height="60" as="geometry" />
        </mxCell>
        <mxCell id="SN-OoBPxkU3_RAz1DeaD-14" style="edgeStyle=orthogonalEdgeStyle;rounded=0;orthogonalLoop=1;jettySize=auto;html=1;exitX=0;exitY=1;exitDx=0;exitDy=0;" parent="1" source="SN-OoBPxkU3_RAz1DeaD-8" edge="1">
          <mxGeometry relative="1" as="geometry">
            <mxPoint x="-5150" y="332" as="targetPoint" />
            <mxPoint x="-4640.76" y="251.4749999999999" as="sourcePoint" />
            <Array as="points">
              <mxPoint x="-4528" y="252" />
              <mxPoint x="-4528" y="277" />
              <mxPoint x="-5149" y="277" />
              <mxPoint x="-5149" y="332" />
            </Array>
          </mxGeometry>
        </mxCell>
        <mxCell id="SN-OoBPxkU3_RAz1DeaD-49" style="edgeStyle=orthogonalEdgeStyle;rounded=0;orthogonalLoop=1;jettySize=auto;html=1;exitX=0.5;exitY=1;exitDx=0;exitDy=0;" parent="1" source="SN-OoBPxkU3_RAz1DeaD-8" target="SN-OoBPxkU3_RAz1DeaD-24" edge="1">
          <mxGeometry relative="1" as="geometry" />
        </mxCell>
        <mxCell id="SN-OoBPxkU3_RAz1DeaD-8" value="" style="rounded=0;whiteSpace=wrap;html=1;fillColor=#867f37;strokeColor=none;" parent="1" vertex="1">
          <mxGeometry x="-4538" y="227" width="120" height="25" as="geometry" />
        </mxCell>
        <mxCell id="SN-OoBPxkU3_RAz1DeaD-13" value="L&#39;utilisateur est un&lt;br&gt;administrateur" style="text;html=1;align=center;verticalAlign=middle;resizable=0;points=[];autosize=1;strokeColor=none;fillColor=none;" parent="1" vertex="1">
          <mxGeometry x="-4458" y="151" width="120" height="40" as="geometry" />
        </mxCell>
        <mxCell id="SN-OoBPxkU3_RAz1DeaD-42" style="edgeStyle=orthogonalEdgeStyle;rounded=0;orthogonalLoop=1;jettySize=auto;html=1;exitX=0.5;exitY=1;exitDx=0;exitDy=0;entryX=0.5;entryY=0;entryDx=0;entryDy=0;" parent="1" source="SN-OoBPxkU3_RAz1DeaD-15" target="SN-OoBPxkU3_RAz1DeaD-16" edge="1">
          <mxGeometry relative="1" as="geometry" />
        </mxCell>
        <mxCell id="SN-OoBPxkU3_RAz1DeaD-15" value="&lt;font style=&quot;font-size: 17px;&quot;&gt;Acc&lt;/font&gt;Ã©der au panier" style="html=1;align=center;verticalAlign=top;rounded=1;absoluteArcSize=1;arcSize=20;dashed=0;whiteSpace=wrap;flipV=0;flipH=1;spacingTop=5;fontSize=17;fontStyle=0;fillColor=#E6E6E6;strokeColor=none;" parent="1" vertex="1">
          <mxGeometry x="-5236" y="332" width="170" height="40" as="geometry" />
        </mxCell>
        <mxCell id="SN-OoBPxkU3_RAz1DeaD-43" style="edgeStyle=orthogonalEdgeStyle;rounded=0;orthogonalLoop=1;jettySize=auto;html=1;exitX=0.5;exitY=1;exitDx=0;exitDy=0;entryX=0.5;entryY=0;entryDx=0;entryDy=0;" parent="1" source="SN-OoBPxkU3_RAz1DeaD-16" target="SN-OoBPxkU3_RAz1DeaD-17" edge="1">
          <mxGeometry relative="1" as="geometry" />
        </mxCell>
        <mxCell id="SN-OoBPxkU3_RAz1DeaD-16" value="Commander" style="html=1;align=center;verticalAlign=top;rounded=1;absoluteArcSize=1;arcSize=20;dashed=0;whiteSpace=wrap;flipV=0;flipH=1;spacingTop=5;fontSize=17;fontStyle=0;fillColor=#E6E6E6;strokeColor=none;" parent="1" vertex="1">
          <mxGeometry x="-5224" y="427" width="146" height="40" as="geometry" />
        </mxCell>
        <mxCell id="SN-OoBPxkU3_RAz1DeaD-44" style="edgeStyle=orthogonalEdgeStyle;rounded=0;orthogonalLoop=1;jettySize=auto;html=1;exitX=0.5;exitY=1;exitDx=0;exitDy=0;entryX=0.5;entryY=0;entryDx=0;entryDy=0;" parent="1" source="SN-OoBPxkU3_RAz1DeaD-17" target="SN-OoBPxkU3_RAz1DeaD-18" edge="1">
          <mxGeometry relative="1" as="geometry" />
        </mxCell>
        <mxCell id="SN-OoBPxkU3_RAz1DeaD-17" value="Redirection vers le payement" style="html=1;align=center;verticalAlign=top;rounded=1;absoluteArcSize=1;arcSize=20;dashed=0;whiteSpace=wrap;flipV=0;flipH=1;spacingTop=5;fontSize=17;fontStyle=0;fillColor=#E6E6E6;strokeColor=none;" parent="1" vertex="1">
          <mxGeometry x="-5228" y="512" width="154" height="60" as="geometry" />
        </mxCell>
        <mxCell id="SN-OoBPxkU3_RAz1DeaD-45" style="edgeStyle=orthogonalEdgeStyle;rounded=0;orthogonalLoop=1;jettySize=auto;html=1;exitX=0.5;exitY=1;exitDx=0;exitDy=0;entryX=0.5;entryY=0;entryDx=0;entryDy=0;" parent="1" source="SN-OoBPxkU3_RAz1DeaD-18" target="SN-OoBPxkU3_RAz1DeaD-19" edge="1">
          <mxGeometry relative="1" as="geometry" />
        </mxCell>
        <mxCell id="SN-OoBPxkU3_RAz1DeaD-18" value="Afficher le formulaire" style="html=1;align=center;verticalAlign=top;rounded=1;absoluteArcSize=1;arcSize=20;dashed=0;whiteSpace=wrap;flipV=0;flipH=1;spacingTop=5;fontSize=17;fontStyle=0;fillColor=#E6E6E6;strokeColor=none;" parent="1" vertex="1">
          <mxGeometry x="-5251" y="617" width="200" height="40" as="geometry" />
        </mxCell>
        <mxCell id="SN-OoBPxkU3_RAz1DeaD-46" style="edgeStyle=orthogonalEdgeStyle;rounded=0;orthogonalLoop=1;jettySize=auto;html=1;exitX=0.5;exitY=1;exitDx=0;exitDy=0;" parent="1" edge="1">
          <mxGeometry relative="1" as="geometry">
            <mxPoint x="-5152.545454545454" y="805.3939393939395" as="targetPoint" />
            <mxPoint x="-5153" y="762" as="sourcePoint" />
          </mxGeometry>
        </mxCell>
        <mxCell id="SN-OoBPxkU3_RAz1DeaD-19" value="Remplir le formulaire d&#39;information puis valider" style="html=1;align=center;verticalAlign=top;rounded=1;absoluteArcSize=1;arcSize=20;dashed=0;whiteSpace=wrap;flipV=0;flipH=1;spacingTop=5;fontSize=17;fontStyle=0;fillColor=#E6E6E6;strokeColor=none;" parent="1" vertex="1">
          <mxGeometry x="-5251" y="702" width="200" height="60" as="geometry" />
        </mxCell>
        <mxCell id="SN-OoBPxkU3_RAz1DeaD-20" value="Afficher une notification de d&#39;erreur" style="html=1;align=center;verticalAlign=top;rounded=1;absoluteArcSize=1;arcSize=20;dashed=0;whiteSpace=wrap;flipV=0;flipH=1;spacingTop=5;fontSize=17;fontStyle=0;fillColor=#E6E6E6;strokeColor=none;" parent="1" vertex="1">
          <mxGeometry x="-5370" y="912" width="200" height="60" as="geometry" />
        </mxCell>
        <mxCell id="SN-OoBPxkU3_RAz1DeaD-47" style="edgeStyle=orthogonalEdgeStyle;rounded=0;orthogonalLoop=1;jettySize=auto;html=1;exitX=0;exitY=0.5;exitDx=0;exitDy=0;entryX=0.548;entryY=0.028;entryDx=0;entryDy=0;entryPerimeter=0;" parent="1" source="SN-OoBPxkU3_RAz1DeaD-21" target="SN-OoBPxkU3_RAz1DeaD-20" edge="1">
          <mxGeometry relative="1" as="geometry" />
        </mxCell>
        <mxCell id="SN-OoBPxkU3_RAz1DeaD-48" style="edgeStyle=orthogonalEdgeStyle;rounded=0;orthogonalLoop=1;jettySize=auto;html=1;exitX=1;exitY=0.5;exitDx=0;exitDy=0;entryX=0.5;entryY=0;entryDx=0;entryDy=0;" parent="1" source="SN-OoBPxkU3_RAz1DeaD-21" target="SN-OoBPxkU3_RAz1DeaD-22" edge="1">
          <mxGeometry relative="1" as="geometry" />
        </mxCell>
        <mxCell id="SN-OoBPxkU3_RAz1DeaD-73" value="&lt;font style=&quot;font-size: 15px;&quot;&gt;OUI&lt;/font&gt;" style="edgeLabel;html=1;align=center;verticalAlign=middle;resizable=0;points=[];" parent="SN-OoBPxkU3_RAz1DeaD-48" vertex="1" connectable="0">
          <mxGeometry x="-0.298" y="3" relative="1" as="geometry">
            <mxPoint x="2" y="1" as="offset" />
          </mxGeometry>
        </mxCell>
        <mxCell id="SN-OoBPxkU3_RAz1DeaD-74" value="&lt;span style=&quot;font-size: 15px;&quot;&gt;NON&lt;/span&gt;" style="edgeLabel;html=1;align=center;verticalAlign=middle;resizable=0;points=[];" parent="SN-OoBPxkU3_RAz1DeaD-48" vertex="1" connectable="0">
          <mxGeometry x="-0.298" y="3" relative="1" as="geometry">
            <mxPoint x="-181" y="2" as="offset" />
          </mxGeometry>
        </mxCell>
        <mxCell id="SN-OoBPxkU3_RAz1DeaD-76" value="&lt;font style=&quot;font-size: 15px;&quot;&gt;OUI&lt;/font&gt;" style="edgeLabel;html=1;align=center;verticalAlign=middle;resizable=0;points=[];" parent="SN-OoBPxkU3_RAz1DeaD-48" vertex="1" connectable="0">
          <mxGeometry x="-0.298" y="3" relative="1" as="geometry">
            <mxPoint x="233" y="-165" as="offset" />
          </mxGeometry>
        </mxCell>
        <mxCell id="SN-OoBPxkU3_RAz1DeaD-77" value="&lt;font style=&quot;font-size: 15px;&quot;&gt;NON&lt;/font&gt;" style="edgeLabel;html=1;align=center;verticalAlign=middle;resizable=0;points=[];" parent="SN-OoBPxkU3_RAz1DeaD-48" vertex="1" connectable="0">
          <mxGeometry x="-0.298" y="3" relative="1" as="geometry">
            <mxPoint x="487" y="-168" as="offset" />
          </mxGeometry>
        </mxCell>
        <mxCell id="SN-OoBPxkU3_RAz1DeaD-21" value="" style="rhombus;fillColor=#948b98;strokeColor=none;" parent="1" vertex="1">
          <mxGeometry x="-5173" y="804" width="40" height="40" as="geometry" />
        </mxCell>
        <mxCell id="SN-OoBPxkU3_RAz1DeaD-71" style="edgeStyle=orthogonalEdgeStyle;rounded=0;orthogonalLoop=1;jettySize=auto;html=1;exitX=0.5;exitY=1;exitDx=0;exitDy=0;entryX=0;entryY=0.5;entryDx=0;entryDy=0;" parent="1" source="SN-OoBPxkU3_RAz1DeaD-22" target="SN-OoBPxkU3_RAz1DeaD-62" edge="1">
          <mxGeometry relative="1" as="geometry" />
        </mxCell>
        <mxCell id="SN-OoBPxkU3_RAz1DeaD-22" value="Redirection vers le syteme avec une notification de success" style="html=1;align=center;verticalAlign=top;rounded=1;absoluteArcSize=1;arcSize=20;dashed=0;whiteSpace=wrap;flipV=0;flipH=1;spacingTop=5;fontSize=17;fontStyle=0;fillColor=#E6E6E6;strokeColor=none;" parent="1" vertex="1">
          <mxGeometry x="-5100" y="912" width="200" height="80" as="geometry" />
        </mxCell>
        <mxCell id="SN-OoBPxkU3_RAz1DeaD-50" style="edgeStyle=orthogonalEdgeStyle;rounded=0;orthogonalLoop=1;jettySize=auto;html=1;exitX=0.5;exitY=1;exitDx=0;exitDy=0;entryX=0.5;entryY=0;entryDx=0;entryDy=0;" parent="1" source="SN-OoBPxkU3_RAz1DeaD-24" target="SN-OoBPxkU3_RAz1DeaD-26" edge="1">
          <mxGeometry relative="1" as="geometry" />
        </mxCell>
        <mxCell id="SN-OoBPxkU3_RAz1DeaD-24" value="&lt;font style=&quot;font-size: 17px;&quot;&gt;Acc&lt;/font&gt;Ã©der au profil" style="html=1;align=center;verticalAlign=top;rounded=1;absoluteArcSize=1;arcSize=20;dashed=0;whiteSpace=wrap;flipV=0;flipH=1;spacingTop=5;fontSize=17;fontStyle=0;fillColor=#E6E6E6;strokeColor=none;" parent="1" vertex="1">
          <mxGeometry x="-4563" y="307" width="170" height="40" as="geometry" />
        </mxCell>
        <mxCell id="SN-OoBPxkU3_RAz1DeaD-51" style="edgeStyle=orthogonalEdgeStyle;rounded=0;orthogonalLoop=1;jettySize=auto;html=1;exitX=0.5;exitY=1;exitDx=0;exitDy=0;entryX=0.5;entryY=0;entryDx=0;entryDy=0;" parent="1" source="SN-OoBPxkU3_RAz1DeaD-26" target="SN-OoBPxkU3_RAz1DeaD-27" edge="1">
          <mxGeometry relative="1" as="geometry" />
        </mxCell>
        <mxCell id="SN-OoBPxkU3_RAz1DeaD-26" value="&lt;font style=&quot;font-size: 17px;&quot;&gt;Acc&lt;/font&gt;Ã©der au Commandes" style="html=1;align=center;verticalAlign=top;rounded=1;absoluteArcSize=1;arcSize=20;dashed=0;whiteSpace=wrap;flipV=0;flipH=1;spacingTop=5;fontSize=17;fontStyle=0;fillColor=#E6E6E6;strokeColor=none;" parent="1" vertex="1">
          <mxGeometry x="-4563" y="403" width="170" height="60" as="geometry" />
        </mxCell>
        <mxCell id="SN-OoBPxkU3_RAz1DeaD-52" style="edgeStyle=orthogonalEdgeStyle;rounded=0;orthogonalLoop=1;jettySize=auto;html=1;exitX=0;exitY=0.5;exitDx=0;exitDy=0;entryX=0.5;entryY=0;entryDx=0;entryDy=0;" parent="1" source="SN-OoBPxkU3_RAz1DeaD-27" target="SN-OoBPxkU3_RAz1DeaD-28" edge="1">
          <mxGeometry relative="1" as="geometry" />
        </mxCell>
        <mxCell id="SN-OoBPxkU3_RAz1DeaD-83" value="OUI" style="edgeLabel;html=1;align=center;verticalAlign=middle;resizable=0;points=[];" parent="SN-OoBPxkU3_RAz1DeaD-52" vertex="1" connectable="0">
          <mxGeometry x="0.1876" y="-3" relative="1" as="geometry">
            <mxPoint x="14" y="2" as="offset" />
          </mxGeometry>
        </mxCell>
        <mxCell id="SN-OoBPxkU3_RAz1DeaD-53" style="edgeStyle=orthogonalEdgeStyle;rounded=0;orthogonalLoop=1;jettySize=auto;html=1;exitX=1;exitY=0.5;exitDx=0;exitDy=0;entryX=0.5;entryY=0;entryDx=0;entryDy=0;" parent="1" source="SN-OoBPxkU3_RAz1DeaD-27" target="SN-OoBPxkU3_RAz1DeaD-29" edge="1">
          <mxGeometry relative="1" as="geometry" />
        </mxCell>
        <mxCell id="SN-OoBPxkU3_RAz1DeaD-84" value="NON" style="edgeLabel;html=1;align=center;verticalAlign=middle;resizable=0;points=[];" parent="SN-OoBPxkU3_RAz1DeaD-53" vertex="1" connectable="0">
          <mxGeometry x="-0.0795" relative="1" as="geometry">
            <mxPoint as="offset" />
          </mxGeometry>
        </mxCell>
        <mxCell id="SN-OoBPxkU3_RAz1DeaD-27" value="" style="rhombus;fillColor=#948b98;strokeColor=none;" parent="1" vertex="1">
          <mxGeometry x="-4498" y="517" width="40" height="40" as="geometry" />
        </mxCell>
        <mxCell id="SN-OoBPxkU3_RAz1DeaD-54" style="edgeStyle=orthogonalEdgeStyle;rounded=0;orthogonalLoop=1;jettySize=auto;html=1;exitX=0;exitY=0.5;exitDx=0;exitDy=0;entryX=0.444;entryY=0.025;entryDx=0;entryDy=0;entryPerimeter=0;" parent="1" source="SN-OoBPxkU3_RAz1DeaD-28" target="SN-OoBPxkU3_RAz1DeaD-31" edge="1">
          <mxGeometry relative="1" as="geometry" />
        </mxCell>
        <mxCell id="SN-OoBPxkU3_RAz1DeaD-55" style="edgeStyle=orthogonalEdgeStyle;rounded=0;orthogonalLoop=1;jettySize=auto;html=1;exitX=1;exitY=0.5;exitDx=0;exitDy=0;entryX=0.5;entryY=0;entryDx=0;entryDy=0;" parent="1" source="SN-OoBPxkU3_RAz1DeaD-28" target="SN-OoBPxkU3_RAz1DeaD-30" edge="1">
          <mxGeometry relative="1" as="geometry" />
        </mxCell>
        <mxCell id="SN-OoBPxkU3_RAz1DeaD-28" value="" style="rhombus;fillColor=#948b98;strokeColor=none;" parent="1" vertex="1">
          <mxGeometry x="-4705" y="613" width="40" height="40" as="geometry" />
        </mxCell>
        <mxCell id="SN-OoBPxkU3_RAz1DeaD-56" style="edgeStyle=orthogonalEdgeStyle;rounded=0;orthogonalLoop=1;jettySize=auto;html=1;exitX=0;exitY=0.5;exitDx=0;exitDy=0;" parent="1" source="SN-OoBPxkU3_RAz1DeaD-29" target="SN-OoBPxkU3_RAz1DeaD-32" edge="1">
          <mxGeometry relative="1" as="geometry" />
        </mxCell>
        <mxCell id="SN-OoBPxkU3_RAz1DeaD-80" value="OUI" style="edgeLabel;html=1;align=center;verticalAlign=middle;resizable=0;points=[];" parent="SN-OoBPxkU3_RAz1DeaD-56" vertex="1" connectable="0">
          <mxGeometry x="-0.1495" y="1" relative="1" as="geometry">
            <mxPoint x="1" y="13" as="offset" />
          </mxGeometry>
        </mxCell>
        <mxCell id="SN-OoBPxkU3_RAz1DeaD-57" style="edgeStyle=orthogonalEdgeStyle;rounded=0;orthogonalLoop=1;jettySize=auto;html=1;exitX=1;exitY=0.5;exitDx=0;exitDy=0;entryX=0.5;entryY=0;entryDx=0;entryDy=0;" parent="1" source="SN-OoBPxkU3_RAz1DeaD-29" target="SN-OoBPxkU3_RAz1DeaD-33" edge="1">
          <mxGeometry relative="1" as="geometry" />
        </mxCell>
        <mxCell id="SN-OoBPxkU3_RAz1DeaD-81" value="NON" style="edgeLabel;html=1;align=center;verticalAlign=middle;resizable=0;points=[];" parent="SN-OoBPxkU3_RAz1DeaD-57" vertex="1" connectable="0">
          <mxGeometry x="-0.1016" relative="1" as="geometry">
            <mxPoint as="offset" />
          </mxGeometry>
        </mxCell>
        <mxCell id="SN-OoBPxkU3_RAz1DeaD-29" value="" style="rhombus;fillColor=#948b98;strokeColor=none;" parent="1" vertex="1">
          <mxGeometry x="-4290" y="609" width="40" height="40" as="geometry" />
        </mxCell>
        <mxCell id="SN-OoBPxkU3_RAz1DeaD-69" style="edgeStyle=orthogonalEdgeStyle;rounded=0;orthogonalLoop=1;jettySize=auto;html=1;exitX=0.5;exitY=1;exitDx=0;exitDy=0;entryX=0.5;entryY=0;entryDx=0;entryDy=0;" parent="1" source="SN-OoBPxkU3_RAz1DeaD-30" target="SN-OoBPxkU3_RAz1DeaD-62" edge="1">
          <mxGeometry relative="1" as="geometry" />
        </mxCell>
        <mxCell id="SN-OoBPxkU3_RAz1DeaD-30" value="RÃ©ception non confirmer" style="html=1;align=center;verticalAlign=top;rounded=1;absoluteArcSize=1;arcSize=20;dashed=0;whiteSpace=wrap;flipV=0;flipH=1;spacingTop=5;fontSize=17;fontStyle=0;fillColor=#E6E6E6;strokeColor=none;" parent="1" vertex="1">
          <mxGeometry x="-4655" y="713" width="170" height="60" as="geometry" />
        </mxCell>
        <mxCell id="SN-OoBPxkU3_RAz1DeaD-70" style="edgeStyle=orthogonalEdgeStyle;rounded=0;orthogonalLoop=1;jettySize=auto;html=1;exitX=0.5;exitY=1;exitDx=0;exitDy=0;entryX=0;entryY=0.5;entryDx=0;entryDy=0;" parent="1" source="SN-OoBPxkU3_RAz1DeaD-31" target="SN-OoBPxkU3_RAz1DeaD-62" edge="1">
          <mxGeometry relative="1" as="geometry" />
        </mxCell>
        <mxCell id="SN-OoBPxkU3_RAz1DeaD-31" value="RÃ©ception confirmer" style="html=1;align=center;verticalAlign=top;rounded=1;absoluteArcSize=1;arcSize=20;dashed=0;whiteSpace=wrap;flipV=0;flipH=1;spacingTop=5;fontSize=17;fontStyle=0;fillColor=#E6E6E6;strokeColor=none;" parent="1" vertex="1">
          <mxGeometry x="-4915" y="713" width="170" height="40" as="geometry" />
        </mxCell>
        <mxCell id="SN-OoBPxkU3_RAz1DeaD-64" style="edgeStyle=orthogonalEdgeStyle;rounded=0;orthogonalLoop=1;jettySize=auto;html=1;exitX=0.5;exitY=1;exitDx=0;exitDy=0;entryX=1;entryY=0.5;entryDx=0;entryDy=0;" parent="1" source="SN-OoBPxkU3_RAz1DeaD-32" target="SN-OoBPxkU3_RAz1DeaD-62" edge="1">
          <mxGeometry relative="1" as="geometry" />
        </mxCell>
        <mxCell id="SN-OoBPxkU3_RAz1DeaD-32" value="Commande annuler" style="html=1;align=center;verticalAlign=top;rounded=1;absoluteArcSize=1;arcSize=20;dashed=0;whiteSpace=wrap;flipV=0;flipH=1;spacingTop=5;fontSize=17;fontStyle=0;fillColor=#E6E6E6;strokeColor=none;" parent="1" vertex="1">
          <mxGeometry x="-4479" y="817" width="170" height="40" as="geometry" />
        </mxCell>
        <mxCell id="SN-OoBPxkU3_RAz1DeaD-63" style="edgeStyle=orthogonalEdgeStyle;rounded=0;orthogonalLoop=1;jettySize=auto;html=1;exitX=0.5;exitY=1;exitDx=0;exitDy=0;entryX=1;entryY=0.5;entryDx=0;entryDy=0;" parent="1" source="SN-OoBPxkU3_RAz1DeaD-33" target="SN-OoBPxkU3_RAz1DeaD-62" edge="1">
          <mxGeometry relative="1" as="geometry" />
        </mxCell>
        <mxCell id="SN-OoBPxkU3_RAz1DeaD-33" value="Commande en attente" style="html=1;align=center;verticalAlign=top;rounded=1;absoluteArcSize=1;arcSize=20;dashed=0;whiteSpace=wrap;flipV=0;flipH=1;spacingTop=5;fontSize=17;fontStyle=0;fillColor=#E6E6E6;strokeColor=none;" parent="1" vertex="1">
          <mxGeometry x="-4255" y="817" width="195" height="40" as="geometry" />
        </mxCell>
        <mxCell id="SN-OoBPxkU3_RAz1DeaD-59" style="edgeStyle=orthogonalEdgeStyle;rounded=0;orthogonalLoop=1;jettySize=auto;html=1;exitX=0.5;exitY=1;exitDx=0;exitDy=0;entryX=0.5;entryY=0;entryDx=0;entryDy=0;" parent="1" target="SN-OoBPxkU3_RAz1DeaD-37" edge="1">
          <mxGeometry relative="1" as="geometry">
            <mxPoint x="-3914" y="437" as="sourcePoint" />
          </mxGeometry>
        </mxCell>
        <mxCell id="SN-OoBPxkU3_RAz1DeaD-60" style="edgeStyle=orthogonalEdgeStyle;rounded=0;orthogonalLoop=1;jettySize=auto;html=1;exitX=0;exitY=0.5;exitDx=0;exitDy=0;" parent="1" source="SN-OoBPxkU3_RAz1DeaD-37" target="SN-OoBPxkU3_RAz1DeaD-38" edge="1">
          <mxGeometry relative="1" as="geometry" />
        </mxCell>
        <mxCell id="SN-OoBPxkU3_RAz1DeaD-89" value="OUI" style="edgeLabel;html=1;align=center;verticalAlign=middle;resizable=0;points=[];" parent="SN-OoBPxkU3_RAz1DeaD-60" vertex="1" connectable="0">
          <mxGeometry x="0.4042" y="-1" relative="1" as="geometry">
            <mxPoint as="offset" />
          </mxGeometry>
        </mxCell>
        <mxCell id="SN-OoBPxkU3_RAz1DeaD-61" style="edgeStyle=orthogonalEdgeStyle;rounded=0;orthogonalLoop=1;jettySize=auto;html=1;exitX=1;exitY=0.5;exitDx=0;exitDy=0;entryX=0.5;entryY=0;entryDx=0;entryDy=0;" parent="1" source="SN-OoBPxkU3_RAz1DeaD-37" target="SN-OoBPxkU3_RAz1DeaD-40" edge="1">
          <mxGeometry relative="1" as="geometry" />
        </mxCell>
        <mxCell id="SN-OoBPxkU3_RAz1DeaD-88" value="NON" style="edgeLabel;html=1;align=center;verticalAlign=middle;resizable=0;points=[];" parent="SN-OoBPxkU3_RAz1DeaD-61" vertex="1" connectable="0">
          <mxGeometry x="0.5039" y="-2" relative="1" as="geometry">
            <mxPoint as="offset" />
          </mxGeometry>
        </mxCell>
        <mxCell id="PqpOmXqPzJoeUcGZdCaw-41" value="NON" style="edgeLabel;html=1;align=center;verticalAlign=middle;resizable=0;points=[];" vertex="1" connectable="0" parent="SN-OoBPxkU3_RAz1DeaD-61">
          <mxGeometry x="0.5039" y="-2" relative="1" as="geometry">
            <mxPoint x="3106" y="15" as="offset" />
          </mxGeometry>
        </mxCell>
        <mxCell id="SN-OoBPxkU3_RAz1DeaD-37" value="" style="rhombus;fillColor=#948b98;strokeColor=none;" parent="1" vertex="1">
          <mxGeometry x="-3934" y="507" width="40" height="40" as="geometry" />
        </mxCell>
        <mxCell id="SN-OoBPxkU3_RAz1DeaD-38" value="Commande accÃ©pter" style="html=1;align=center;verticalAlign=top;rounded=1;absoluteArcSize=1;arcSize=20;dashed=0;whiteSpace=wrap;flipV=0;flipH=1;spacingTop=5;fontSize=17;fontStyle=0;fillColor=#E6E6E6;strokeColor=none;" parent="1" vertex="1">
          <mxGeometry x="-4103" y="607" width="170" height="40" as="geometry" />
        </mxCell>
        <mxCell id="SN-OoBPxkU3_RAz1DeaD-67" style="edgeStyle=orthogonalEdgeStyle;rounded=0;orthogonalLoop=1;jettySize=auto;html=1;exitX=0.5;exitY=1;exitDx=0;exitDy=0;entryX=1;entryY=0.5;entryDx=0;entryDy=0;" parent="1" source="SN-OoBPxkU3_RAz1DeaD-40" target="SN-OoBPxkU3_RAz1DeaD-62" edge="1">
          <mxGeometry relative="1" as="geometry" />
        </mxCell>
        <mxCell id="SN-OoBPxkU3_RAz1DeaD-40" value="Commande refuser" style="html=1;align=center;verticalAlign=top;rounded=1;absoluteArcSize=1;arcSize=20;dashed=0;whiteSpace=wrap;flipV=0;flipH=1;spacingTop=5;fontSize=17;fontStyle=0;fillColor=#E6E6E6;strokeColor=none;" parent="1" vertex="1">
          <mxGeometry x="-3839" y="607" width="170" height="40" as="geometry" />
        </mxCell>
        <mxCell id="SN-OoBPxkU3_RAz1DeaD-62" value="" style="ellipse;html=1;shape=endState;fillColor=strokeColor;strokeColor=#948b98;" parent="1" vertex="1">
          <mxGeometry x="-4594" y="1057" width="48" height="50" as="geometry" />
        </mxCell>
        <mxCell id="SN-OoBPxkU3_RAz1DeaD-72" value="&lt;font style=&quot;font-size: 16px;&quot;&gt;Reponse de lAPI&lt;/font&gt;" style="text;html=1;align=center;verticalAlign=middle;resizable=0;points=[];autosize=1;strokeColor=none;fillColor=none;" parent="1" vertex="1">
          <mxGeometry x="-5224" y="847" width="140" height="30" as="geometry" />
        </mxCell>
        <mxCell id="SN-OoBPxkU3_RAz1DeaD-75" value="&lt;font style=&quot;font-size: 15px;&quot;&gt;Confirmation de rÃ©ception&lt;/font&gt;" style="text;html=1;align=center;verticalAlign=middle;resizable=0;points=[];autosize=1;strokeColor=none;fillColor=none;" parent="1" vertex="1">
          <mxGeometry x="-4787" y="654" width="200" height="30" as="geometry" />
        </mxCell>
        <mxCell id="SN-OoBPxkU3_RAz1DeaD-79" value="Annuler la commande" style="text;html=1;align=center;verticalAlign=middle;resizable=0;points=[];autosize=1;strokeColor=none;fillColor=none;fontSize=17;" parent="1" vertex="1">
          <mxGeometry x="-4372" y="655" width="190" height="30" as="geometry" />
        </mxCell>
        <mxCell id="SN-OoBPxkU3_RAz1DeaD-82" value="&lt;font style=&quot;font-size: 15px;&quot;&gt;Commande valider par&amp;nbsp; l&#39;admin&lt;/font&gt;" style="text;html=1;align=center;verticalAlign=middle;resizable=0;points=[];autosize=1;strokeColor=none;fillColor=none;" parent="1" vertex="1">
          <mxGeometry x="-4587" y="559" width="230" height="30" as="geometry" />
        </mxCell>
        <mxCell id="SN-OoBPxkU3_RAz1DeaD-87" value="&lt;font style=&quot;font-size: 15px;&quot;&gt;AccÃ©pter la commande&lt;/font&gt;" style="text;html=1;align=center;verticalAlign=middle;resizable=0;points=[];autosize=1;strokeColor=none;fillColor=none;" parent="1" vertex="1">
          <mxGeometry x="-4000" y="552" width="180" height="30" as="geometry" />
        </mxCell>
        <mxCell id="PqpOmXqPzJoeUcGZdCaw-1" value="" style="rounded=0;whiteSpace=wrap;html=1;strokeWidth=3;" vertex="1" parent="1">
          <mxGeometry x="-3640" y="-1050" width="2770" height="3337" as="geometry" />
        </mxCell>
        <mxCell id="PqpOmXqPzJoeUcGZdCaw-2" value="" style="endArrow=none;html=1;rounded=0;exitX=0;exitY=0.062;exitDx=0;exitDy=0;exitPerimeter=0;strokeWidth=3;entryX=1;entryY=0.061;entryDx=0;entryDy=0;entryPerimeter=0;" edge="1" parent="1" source="PqpOmXqPzJoeUcGZdCaw-1" target="PqpOmXqPzJoeUcGZdCaw-1">
          <mxGeometry width="50" height="50" relative="1" as="geometry">
            <mxPoint x="-3607.66" y="-868.6799999999998" as="sourcePoint" />
            <mxPoint x="-1260" y="-869" as="targetPoint" />
          </mxGeometry>
        </mxCell>
        <mxCell id="PqpOmXqPzJoeUcGZdCaw-3" value="" style="endArrow=none;html=1;rounded=0;exitX=0.346;exitY=1.003;exitDx=0;exitDy=0;entryX=0.346;entryY=0;entryDx=0;entryDy=0;strokeWidth=3;exitPerimeter=0;entryPerimeter=0;" edge="1" parent="1" source="PqpOmXqPzJoeUcGZdCaw-1" target="PqpOmXqPzJoeUcGZdCaw-1">
          <mxGeometry width="50" height="50" relative="1" as="geometry">
            <mxPoint x="-2679.999999999999" y="1167" as="sourcePoint" />
            <mxPoint x="-2679.999999999999" y="-1003" as="targetPoint" />
          </mxGeometry>
        </mxCell>
        <mxCell id="PqpOmXqPzJoeUcGZdCaw-4" value="" style="endArrow=none;html=1;rounded=0;exitX=0.697;exitY=1;exitDx=0;exitDy=0;entryX=0.697;entryY=0;entryDx=0;entryDy=0;strokeWidth=3;exitPerimeter=0;entryPerimeter=0;" edge="1" parent="1" source="PqpOmXqPzJoeUcGZdCaw-1" target="PqpOmXqPzJoeUcGZdCaw-1">
          <mxGeometry width="50" height="50" relative="1" as="geometry">
            <mxPoint x="-1710" y="1157" as="sourcePoint" />
            <mxPoint x="-1710" y="-1013" as="targetPoint" />
          </mxGeometry>
        </mxCell>
        <mxCell id="PqpOmXqPzJoeUcGZdCaw-5" value="&lt;font style=&quot;font-size: 40px;&quot;&gt;Utilisateur&lt;/font&gt;" style="text;html=1;strokeColor=none;fillColor=none;align=center;verticalAlign=middle;whiteSpace=wrap;rounded=0;" vertex="1" parent="1">
          <mxGeometry x="-3380" y="-983" width="420" height="90" as="geometry" />
        </mxCell>
        <mxCell id="PqpOmXqPzJoeUcGZdCaw-6" value="&lt;font style=&quot;font-size: 40px;&quot;&gt;Systeme&lt;/font&gt;" style="text;html=1;strokeColor=none;fillColor=none;align=center;verticalAlign=middle;whiteSpace=wrap;rounded=0;" vertex="1" parent="1">
          <mxGeometry x="-2490" y="-983" width="420" height="90" as="geometry" />
        </mxCell>
        <mxCell id="PqpOmXqPzJoeUcGZdCaw-7" value="&lt;font style=&quot;font-size: 40px;&quot;&gt;Base de donnees&lt;/font&gt;" style="text;html=1;strokeColor=none;fillColor=none;align=center;verticalAlign=middle;whiteSpace=wrap;rounded=0;" vertex="1" parent="1">
          <mxGeometry x="-1570" y="-983" width="420" height="90" as="geometry" />
        </mxCell>
        <mxCell id="PqpOmXqPzJoeUcGZdCaw-23" style="edgeStyle=orthogonalEdgeStyle;rounded=0;orthogonalLoop=1;jettySize=auto;html=1;exitX=0.5;exitY=1;exitDx=0;exitDy=0;entryX=0.5;entryY=0;entryDx=0;entryDy=0;strokeWidth=3;" edge="1" parent="1" source="PqpOmXqPzJoeUcGZdCaw-8" target="PqpOmXqPzJoeUcGZdCaw-9">
          <mxGeometry relative="1" as="geometry" />
        </mxCell>
        <mxCell id="PqpOmXqPzJoeUcGZdCaw-8" value="" style="ellipse;fillColor=strokeColor;html=1;" vertex="1" parent="1">
          <mxGeometry x="-3250" y="-818" width="140" height="140" as="geometry" />
        </mxCell>
        <mxCell id="PqpOmXqPzJoeUcGZdCaw-24" style="edgeStyle=orthogonalEdgeStyle;rounded=0;orthogonalLoop=1;jettySize=auto;html=1;exitX=1;exitY=0.5;exitDx=0;exitDy=0;strokeWidth=3;endSize=15;targetPerimeterSpacing=0;startSize=14;" edge="1" parent="1" source="PqpOmXqPzJoeUcGZdCaw-9" target="PqpOmXqPzJoeUcGZdCaw-10">
          <mxGeometry relative="1" as="geometry" />
        </mxCell>
        <mxCell id="PqpOmXqPzJoeUcGZdCaw-9" value="&lt;font style=&quot;font-size: 40px;&quot;&gt;Demande de connexion&lt;/font&gt;" style="rounded=1;whiteSpace=wrap;html=1;strokeWidth=3;" vertex="1" parent="1">
          <mxGeometry x="-3469" y="-473" width="580" height="144" as="geometry" />
        </mxCell>
        <mxCell id="PqpOmXqPzJoeUcGZdCaw-25" style="edgeStyle=orthogonalEdgeStyle;rounded=0;orthogonalLoop=1;jettySize=auto;html=1;exitX=0.25;exitY=1;exitDx=0;exitDy=0;entryX=1;entryY=0.25;entryDx=0;entryDy=0;strokeWidth=4;endSize=15;" edge="1" parent="1" source="PqpOmXqPzJoeUcGZdCaw-10" target="PqpOmXqPzJoeUcGZdCaw-11">
          <mxGeometry relative="1" as="geometry" />
        </mxCell>
        <mxCell id="PqpOmXqPzJoeUcGZdCaw-26" style="edgeStyle=orthogonalEdgeStyle;rounded=0;orthogonalLoop=1;jettySize=auto;html=1;exitX=0.5;exitY=1;exitDx=0;exitDy=0;entryX=0.5;entryY=0;entryDx=0;entryDy=0;strokeWidth=3;endSize=20;" edge="1" parent="1" source="PqpOmXqPzJoeUcGZdCaw-10" target="PqpOmXqPzJoeUcGZdCaw-12">
          <mxGeometry relative="1" as="geometry" />
        </mxCell>
        <mxCell id="PqpOmXqPzJoeUcGZdCaw-10" value="&lt;font style=&quot;font-size: 40px;&quot;&gt;Afiichage du formulaire de connexion&lt;/font&gt;" style="rounded=1;whiteSpace=wrap;html=1;strokeWidth=3;" vertex="1" parent="1">
          <mxGeometry x="-2550" y="-473" width="740" height="144" as="geometry" />
        </mxCell>
        <mxCell id="PqpOmXqPzJoeUcGZdCaw-11" value="&lt;font style=&quot;font-size: 40px;&quot;&gt;Saisie des informations de connexion&lt;/font&gt;" style="rounded=1;whiteSpace=wrap;html=1;strokeWidth=3;" vertex="1" parent="1">
          <mxGeometry x="-3520" y="-91" width="700" height="144" as="geometry" />
        </mxCell>
        <mxCell id="PqpOmXqPzJoeUcGZdCaw-27" style="edgeStyle=orthogonalEdgeStyle;rounded=0;orthogonalLoop=1;jettySize=auto;html=1;exitX=0.5;exitY=1;exitDx=0;exitDy=0;strokeWidth=3;endSize=20;" edge="1" parent="1" source="PqpOmXqPzJoeUcGZdCaw-12" target="PqpOmXqPzJoeUcGZdCaw-14">
          <mxGeometry relative="1" as="geometry" />
        </mxCell>
        <mxCell id="PqpOmXqPzJoeUcGZdCaw-12" value="&lt;font style=&quot;font-size: 40px;&quot;&gt;Recuperation des donnees du formulaire&lt;/font&gt;" style="rounded=1;whiteSpace=wrap;html=1;strokeWidth=3;" vertex="1" parent="1">
          <mxGeometry x="-2554" y="47" width="750" height="144" as="geometry" />
        </mxCell>
        <mxCell id="PqpOmXqPzJoeUcGZdCaw-29" style="edgeStyle=orthogonalEdgeStyle;rounded=0;orthogonalLoop=1;jettySize=auto;html=1;exitX=0.5;exitY=1;exitDx=0;exitDy=0;entryX=0.447;entryY=0.004;entryDx=0;entryDy=0;entryPerimeter=0;strokeWidth=3;endSize=20;" edge="1" parent="1" source="PqpOmXqPzJoeUcGZdCaw-13" target="PqpOmXqPzJoeUcGZdCaw-17">
          <mxGeometry relative="1" as="geometry" />
        </mxCell>
        <mxCell id="PqpOmXqPzJoeUcGZdCaw-13" value="&lt;font style=&quot;font-size: 40px;&quot;&gt;Traitement de la requete&lt;/font&gt;" style="rounded=1;whiteSpace=wrap;html=1;strokeWidth=3;" vertex="1" parent="1">
          <mxGeometry x="-1580" y="207" width="580" height="144" as="geometry" />
        </mxCell>
        <mxCell id="PqpOmXqPzJoeUcGZdCaw-28" style="edgeStyle=orthogonalEdgeStyle;rounded=0;orthogonalLoop=1;jettySize=auto;html=1;exitX=1;exitY=0.5;exitDx=0;exitDy=0;entryX=0.374;entryY=1.009;entryDx=0;entryDy=0;entryPerimeter=0;strokeWidth=3;endSize=20;" edge="1" parent="1" source="PqpOmXqPzJoeUcGZdCaw-14" target="PqpOmXqPzJoeUcGZdCaw-13">
          <mxGeometry relative="1" as="geometry" />
        </mxCell>
        <mxCell id="PqpOmXqPzJoeUcGZdCaw-33" style="edgeStyle=orthogonalEdgeStyle;rounded=0;orthogonalLoop=1;jettySize=auto;html=1;exitX=0;exitY=0.5;exitDx=0;exitDy=0;entryX=0.584;entryY=1.005;entryDx=0;entryDy=0;entryPerimeter=0;strokeWidth=3;endSize=20;" edge="1" parent="1" source="PqpOmXqPzJoeUcGZdCaw-14" target="PqpOmXqPzJoeUcGZdCaw-11">
          <mxGeometry relative="1" as="geometry" />
        </mxCell>
        <mxCell id="PqpOmXqPzJoeUcGZdCaw-14" value="&lt;font style=&quot;font-size: 40px;&quot;&gt;Verification des champs&lt;br&gt;&lt;/font&gt;" style="rhombus;whiteSpace=wrap;html=1;strokeWidth=3;" vertex="1" parent="1">
          <mxGeometry x="-2505" y="397" width="650" height="180" as="geometry" />
        </mxCell>
        <mxCell id="PqpOmXqPzJoeUcGZdCaw-30" style="edgeStyle=orthogonalEdgeStyle;rounded=0;orthogonalLoop=1;jettySize=auto;html=1;exitX=0;exitY=0.5;exitDx=0;exitDy=0;entryX=1;entryY=0.5;entryDx=0;entryDy=0;strokeWidth=3;endSize=20;" edge="1" parent="1" source="PqpOmXqPzJoeUcGZdCaw-17" target="PqpOmXqPzJoeUcGZdCaw-18">
          <mxGeometry relative="1" as="geometry" />
        </mxCell>
        <mxCell id="PqpOmXqPzJoeUcGZdCaw-17" value="&lt;font style=&quot;font-size: 40px;&quot;&gt;Envoie des resultats la requette&lt;/font&gt;" style="rounded=1;whiteSpace=wrap;html=1;strokeWidth=3;" vertex="1" parent="1">
          <mxGeometry x="-1550" y="987" width="580" height="144" as="geometry" />
        </mxCell>
        <mxCell id="PqpOmXqPzJoeUcGZdCaw-32" style="edgeStyle=orthogonalEdgeStyle;rounded=0;orthogonalLoop=1;jettySize=auto;html=1;exitX=0.5;exitY=1;exitDx=0;exitDy=0;strokeWidth=3;endSize=20;" edge="1" parent="1" source="PqpOmXqPzJoeUcGZdCaw-18" target="PqpOmXqPzJoeUcGZdCaw-19">
          <mxGeometry relative="1" as="geometry" />
        </mxCell>
        <mxCell id="PqpOmXqPzJoeUcGZdCaw-34" style="edgeStyle=orthogonalEdgeStyle;rounded=0;orthogonalLoop=1;jettySize=auto;html=1;exitX=0;exitY=0.5;exitDx=0;exitDy=0;entryX=0.5;entryY=0;entryDx=0;entryDy=0;strokeWidth=3;endSize=20;" edge="1" parent="1" source="PqpOmXqPzJoeUcGZdCaw-18" target="PqpOmXqPzJoeUcGZdCaw-22">
          <mxGeometry relative="1" as="geometry" />
        </mxCell>
        <mxCell id="PqpOmXqPzJoeUcGZdCaw-18" value="&lt;font style=&quot;font-size: 40px;&quot;&gt;Connexion&lt;/font&gt;" style="rhombus;whiteSpace=wrap;html=1;strokeWidth=3;" vertex="1" parent="1">
          <mxGeometry x="-2494" y="962" width="580" height="197" as="geometry" />
        </mxCell>
        <mxCell id="PqpOmXqPzJoeUcGZdCaw-40" style="edgeStyle=orthogonalEdgeStyle;rounded=0;orthogonalLoop=1;jettySize=auto;html=1;exitX=0.5;exitY=1;exitDx=0;exitDy=0;entryX=0.5;entryY=0;entryDx=0;entryDy=0;strokeWidth=3;endSize=20;" edge="1" parent="1" source="PqpOmXqPzJoeUcGZdCaw-19" target="PqpOmXqPzJoeUcGZdCaw-37">
          <mxGeometry relative="1" as="geometry" />
        </mxCell>
        <mxCell id="PqpOmXqPzJoeUcGZdCaw-19" value="&lt;span style=&quot;font-size: 40px;&quot;&gt;redirection vers la page d&#39;acceuil&lt;/span&gt;" style="rounded=1;whiteSpace=wrap;html=1;strokeWidth=3;" vertex="1" parent="1">
          <mxGeometry x="-2527" y="1487" width="648" height="144" as="geometry" />
        </mxCell>
        <mxCell id="PqpOmXqPzJoeUcGZdCaw-39" style="edgeStyle=orthogonalEdgeStyle;rounded=0;orthogonalLoop=1;jettySize=auto;html=1;exitX=0.5;exitY=1;exitDx=0;exitDy=0;entryX=0.5;entryY=0;entryDx=0;entryDy=0;strokeWidth=3;endSize=20;" edge="1" parent="1" source="PqpOmXqPzJoeUcGZdCaw-20" target="PqpOmXqPzJoeUcGZdCaw-38">
          <mxGeometry relative="1" as="geometry" />
        </mxCell>
        <mxCell id="PqpOmXqPzJoeUcGZdCaw-20" value="&lt;font style=&quot;font-size: 40px;&quot;&gt;Creer compte&lt;br&gt;&lt;/font&gt;" style="rounded=1;whiteSpace=wrap;html=1;strokeWidth=3;" vertex="1" parent="1">
          <mxGeometry x="-3470" y="1497" width="580" height="144" as="geometry" />
        </mxCell>
        <mxCell id="PqpOmXqPzJoeUcGZdCaw-35" style="edgeStyle=orthogonalEdgeStyle;rounded=0;orthogonalLoop=1;jettySize=auto;html=1;exitX=0.75;exitY=1;exitDx=0;exitDy=0;strokeWidth=3;endSize=20;" edge="1" parent="1" source="PqpOmXqPzJoeUcGZdCaw-22" target="PqpOmXqPzJoeUcGZdCaw-20">
          <mxGeometry relative="1" as="geometry" />
        </mxCell>
        <mxCell id="PqpOmXqPzJoeUcGZdCaw-36" style="edgeStyle=orthogonalEdgeStyle;rounded=0;orthogonalLoop=1;jettySize=auto;html=1;exitX=0.25;exitY=1;exitDx=0;exitDy=0;entryX=0.25;entryY=1;entryDx=0;entryDy=0;strokeWidth=3;endSize=20;" edge="1" parent="1" source="PqpOmXqPzJoeUcGZdCaw-22" target="PqpOmXqPzJoeUcGZdCaw-11">
          <mxGeometry relative="1" as="geometry" />
        </mxCell>
        <mxCell id="PqpOmXqPzJoeUcGZdCaw-22" value="" style="rounded=0;whiteSpace=wrap;html=1;rotation=90;" vertex="1" parent="1">
          <mxGeometry x="-3000" y="1044" width="190" height="30" as="geometry" />
        </mxCell>
        <mxCell id="PqpOmXqPzJoeUcGZdCaw-37" value="" style="shape=sumEllipse;perimeter=ellipsePerimeter;html=1;backgroundOutline=1;strokeWidth=3;" vertex="1" parent="1">
          <mxGeometry x="-2302" y="1957" width="200" height="200" as="geometry" />
        </mxCell>
        <mxCell id="PqpOmXqPzJoeUcGZdCaw-38" value="" style="shape=sumEllipse;perimeter=ellipsePerimeter;html=1;backgroundOutline=1;strokeWidth=3;" vertex="1" parent="1">
          <mxGeometry x="-3279" y="1977" width="200" height="200" as="geometry" />
        </mxCell>
        <mxCell id="PqpOmXqPzJoeUcGZdCaw-42" value="" style="endArrow=none;html=1;rounded=0;exitX=0;exitY=0.062;exitDx=0;exitDy=0;exitPerimeter=0;strokeWidth=3;entryX=1;entryY=0.061;entryDx=0;entryDy=0;entryPerimeter=0;" edge="1" source="PqpOmXqPzJoeUcGZdCaw-75" target="PqpOmXqPzJoeUcGZdCaw-75" parent="1">
          <mxGeometry width="50" height="50" relative="1" as="geometry">
            <mxPoint x="2378.34" y="-891.1799999999998" as="sourcePoint" />
            <mxPoint x="4726" y="-891.5" as="targetPoint" />
          </mxGeometry>
        </mxCell>
        <mxCell id="PqpOmXqPzJoeUcGZdCaw-43" value="&lt;font style=&quot;font-size: 40px;&quot;&gt;Utilisateur&lt;/font&gt;" style="text;html=1;strokeColor=none;fillColor=none;align=center;verticalAlign=middle;whiteSpace=wrap;rounded=0;" vertex="1" parent="1">
          <mxGeometry x="2606" y="-1005.5" width="420" height="90" as="geometry" />
        </mxCell>
        <mxCell id="PqpOmXqPzJoeUcGZdCaw-44" value="&lt;font style=&quot;font-size: 40px;&quot;&gt;Systeme&lt;/font&gt;" style="text;html=1;strokeColor=none;fillColor=none;align=center;verticalAlign=middle;whiteSpace=wrap;rounded=0;" vertex="1" parent="1">
          <mxGeometry x="3496" y="-1005.5" width="420" height="90" as="geometry" />
        </mxCell>
        <mxCell id="PqpOmXqPzJoeUcGZdCaw-45" value="&lt;font style=&quot;font-size: 40px;&quot;&gt;Base de donnees&lt;/font&gt;" style="text;html=1;strokeColor=none;fillColor=none;align=center;verticalAlign=middle;whiteSpace=wrap;rounded=0;" vertex="1" parent="1">
          <mxGeometry x="4416" y="-1005.5" width="420" height="90" as="geometry" />
        </mxCell>
        <mxCell id="PqpOmXqPzJoeUcGZdCaw-46" style="edgeStyle=orthogonalEdgeStyle;rounded=0;orthogonalLoop=1;jettySize=auto;html=1;exitX=0.5;exitY=1;exitDx=0;exitDy=0;entryX=0.5;entryY=0;entryDx=0;entryDy=0;strokeWidth=3;" edge="1" source="PqpOmXqPzJoeUcGZdCaw-47" target="PqpOmXqPzJoeUcGZdCaw-49" parent="1">
          <mxGeometry relative="1" as="geometry" />
        </mxCell>
        <mxCell id="PqpOmXqPzJoeUcGZdCaw-47" value="" style="ellipse;fillColor=strokeColor;html=1;" vertex="1" parent="1">
          <mxGeometry x="2409" y="-829" width="140" height="140" as="geometry" />
        </mxCell>
        <mxCell id="PqpOmXqPzJoeUcGZdCaw-49" value="&lt;font style=&quot;font-size: 40px;&quot;&gt;lancer un recherche&lt;/font&gt;" style="rounded=1;whiteSpace=wrap;html=1;strokeWidth=3;" vertex="1" parent="1">
          <mxGeometry x="2190" y="-484" width="580" height="144" as="geometry" />
        </mxCell>
        <mxCell id="PqpOmXqPzJoeUcGZdCaw-57" value="&lt;font style=&quot;font-size: 40px;&quot;&gt;Demande de connexion&lt;/font&gt;" style="rounded=1;whiteSpace=wrap;html=1;strokeWidth=3;" vertex="1" parent="1">
          <mxGeometry x="6030" y="71" width="580" height="144" as="geometry" />
        </mxCell>
        <mxCell id="PqpOmXqPzJoeUcGZdCaw-62" value="&lt;font style=&quot;font-size: 40px;&quot;&gt;Demande de connexion&lt;/font&gt;" style="rounded=1;whiteSpace=wrap;html=1;strokeWidth=3;" vertex="1" parent="1">
          <mxGeometry x="4490" y="1150" width="580" height="144" as="geometry" />
        </mxCell>
        <mxCell id="PqpOmXqPzJoeUcGZdCaw-89" style="edgeStyle=orthogonalEdgeStyle;rounded=0;orthogonalLoop=1;jettySize=auto;html=1;exitX=0;exitY=0.5;exitDx=0;exitDy=0;entryX=0.5;entryY=1;entryDx=0;entryDy=0;" edge="1" parent="1" source="PqpOmXqPzJoeUcGZdCaw-65" target="PqpOmXqPzJoeUcGZdCaw-49">
          <mxGeometry relative="1" as="geometry" />
        </mxCell>
        <mxCell id="PqpOmXqPzJoeUcGZdCaw-65" value="&lt;font style=&quot;font-size: 40px;&quot;&gt;verifiications du resultat&lt;/font&gt;" style="rhombus;whiteSpace=wrap;html=1;strokeWidth=3;" vertex="1" parent="1">
          <mxGeometry x="3350" y="170" width="820" height="280" as="geometry" />
        </mxCell>
        <mxCell id="PqpOmXqPzJoeUcGZdCaw-72" value="" style="rounded=0;whiteSpace=wrap;html=1;rotation=90;" vertex="1" parent="1">
          <mxGeometry x="5940" y="1320" width="190" height="30" as="geometry" />
        </mxCell>
        <mxCell id="PqpOmXqPzJoeUcGZdCaw-73" value="" style="shape=sumEllipse;perimeter=ellipsePerimeter;html=1;backgroundOutline=1;strokeWidth=3;" vertex="1" parent="1">
          <mxGeometry x="3684" y="1934.5" width="200" height="200" as="geometry" />
        </mxCell>
        <mxCell id="PqpOmXqPzJoeUcGZdCaw-74" value="" style="shape=sumEllipse;perimeter=ellipsePerimeter;html=1;backgroundOutline=1;strokeWidth=3;" vertex="1" parent="1">
          <mxGeometry x="2707" y="1954.5" width="200" height="200" as="geometry" />
        </mxCell>
        <mxCell id="PqpOmXqPzJoeUcGZdCaw-76" value="" style="endArrow=none;html=1;rounded=0;exitX=0.346;exitY=1.003;exitDx=0;exitDy=0;entryX=0.346;entryY=0;entryDx=0;entryDy=0;strokeWidth=3;exitPerimeter=0;entryPerimeter=0;" edge="1" parent="1">
          <mxGeometry width="50" height="50" relative="1" as="geometry">
            <mxPoint x="3269.58" y="2273.49" as="sourcePoint" />
            <mxPoint x="3269.58" y="-1073.51" as="targetPoint" />
          </mxGeometry>
        </mxCell>
        <mxCell id="PqpOmXqPzJoeUcGZdCaw-77" value="" style="endArrow=none;html=1;rounded=0;exitX=0.697;exitY=1;exitDx=0;exitDy=0;entryX=0.697;entryY=0;entryDx=0;entryDy=0;strokeWidth=3;exitPerimeter=0;entryPerimeter=0;" edge="1" parent="1">
          <mxGeometry width="50" height="50" relative="1" as="geometry">
            <mxPoint x="4250.3099999999995" y="2277" as="sourcePoint" />
            <mxPoint x="4250.3099999999995" y="-1060" as="targetPoint" />
          </mxGeometry>
        </mxCell>
        <mxCell id="PqpOmXqPzJoeUcGZdCaw-78" value="&lt;span style=&quot;font-size: 40px;&quot;&gt;tranfert de la requette&lt;/span&gt;" style="rounded=1;whiteSpace=wrap;html=1;strokeWidth=3;" vertex="1" parent="1">
          <mxGeometry x="3450" y="-480" width="580" height="144" as="geometry" />
        </mxCell>
        <mxCell id="PqpOmXqPzJoeUcGZdCaw-79" value="&lt;span style=&quot;font-size: 40px;&quot;&gt;recherche des pagnes&lt;/span&gt;" style="rounded=1;whiteSpace=wrap;html=1;strokeWidth=3;" vertex="1" parent="1">
          <mxGeometry x="4470" y="-90" width="580" height="144" as="geometry" />
        </mxCell>
        <mxCell id="PqpOmXqPzJoeUcGZdCaw-84" value="" style="shape=sumEllipse;perimeter=ellipsePerimeter;html=1;backgroundOutline=1;strokeWidth=3;" vertex="1" parent="1">
          <mxGeometry x="3690" y="950" width="200" height="200" as="geometry" />
        </mxCell>
        <mxCell id="PqpOmXqPzJoeUcGZdCaw-86" value="&lt;span style=&quot;font-size: 40px;&quot;&gt;Consulte les recherche&lt;/span&gt;" style="rounded=1;whiteSpace=wrap;html=1;strokeWidth=3;" vertex="1" parent="1">
          <mxGeometry x="2430" y="806" width="580" height="144" as="geometry" />
        </mxCell>
        <mxCell id="PqpOmXqPzJoeUcGZdCaw-90" value="&lt;span style=&quot;font-size: 40px;&quot;&gt;[la liste est vide]&lt;/span&gt;" style="text;html=1;strokeColor=none;fillColor=none;align=center;verticalAlign=middle;whiteSpace=wrap;rounded=0;" vertex="1" parent="1">
          <mxGeometry x="2740" y="270" width="370" height="30" as="geometry" />
        </mxCell>
      </root>
    </mxGraphModel>
  </diagram>
</mxfile>
